PathFileType	4	(X/Y/Z)	C:/Users/beibeiliu/ov580/test_trc/User3\out5_training_dense_right.trc
DataRate	CameraRate	NumFrames	NumMarkers	Units	OrigDataRate	OrigDataStartFrame	OrigNumFrames
120	120	25	19	mm	120	251	500
Frame#	Time	ThumbCMC			ThumbMCP			ThumbIP			ThumbTip			IndexMCP			IndexPIP			IndexTip			MiddleMCP			MiddlePIP			MiddleTip			RingMCP			RingPIP			RingTip			PinkyMCP			PinkyPIP			PinkyTip			BackHand1			BackHand2			BackHand3	
		X0	Y0	Z0	X1	Y1	Z1	X2	Y2	Z2	X3	Y3	Z3	X4	Y4	Z4	X5	Y5	Z5	X6	Y6	Z6	X7	Y7	Z7	X8	Y8	Z8	X9	Y9	Z9	X10	Y10	Z10	X11	Y11	Z11	X12	Y12	Z12	X13	Y13	Z13	X14	Y14	Z14	X15	Y15	Z15	X16	Y16	Z16	X17	Y17	Z17	X18	Y18	Z18	
250	2.08333	129.28	49.1126	8.62571	118.736	36.1959	-23.6531	129.375	25.0872	-53.6101	155.36	13.1297	-58.0354	152.4	69.615	-56.8436	142.631	45.0803	-69.8779	132.887	29.1865	-42.3486	176.831	64.1419	-57.3204	164.192	39.3163	-76.357	152.327	19.5406	-44.3262	192.602	49.1643	-49.2591	180.784	27.3038	-68.0006	162.176	9.02225	-42.6045	201.616	35.6983	-40.3837	188.013	16.7606	-57.8116	170.808	2.04994	-38.358	193.113	57.6897	9.18921	188.261	47.9653	34.6155	163.022	70.133	16.3702	
251	2.09167	122.428	48.5723	9.70505	113.786	31.8305	-19.6287	119.842	16.5912	-46.5807	146.522	2.69017	-56.3724	144.855	61.8784	-56.2371	127.282	34.4424	-69.1109	125.591	20.9012	-36.5853	165.842	54.1935	-61.4094	151.152	26.0738	-75.8194	139.32	11.5438	-42.3939	180.737	39.3222	-54.5491	169.963	13.4507	-67.9935	151.424	2.40191	-40.1525	194.397	24.5681	-43.4004	176.419	5.89302	-55.6831	158.246	-5.28907	-33.7385	188.87	54.9086	0.949424	187.466	45.1565	30.0821	159.481	67.2282	11.5305	
252	2.1	117.998	47.1386	10.3811	105.762	29.4594	-20.9148	110.276	10.5284	-44.4547	131.669	-4.3912	-48.8191	141.599	51.5387	-59.1554	120.328	25.1657	-68.2746	113.028	17.0013	-34.8891	157.77	42.4775	-64.2084	142.618	16.2781	-75.6298	130.528	6.93304	-35.6752	170.996	28.7025	-55.5057	157.015	2.9599	-65.6785	140.414	-3.93017	-34.7572	180.843	17.5968	-43.8434	166.51	-5.3845	-52.8639	151.024	-12.1856	-27.0147	185.894	48.1583	-1.25503	184.361	43.792	28.8004	157.799	64.6321	9.46248	
253	2.10833	114.109	48.7617	10.0909	99.1258	29.1702	-12.0991	99.5592	7.35453	-41.7979	120.908	-10.5943	-48.579	128.887	49.2867	-59.5952	108.112	23.4683	-66.6199	101.362	15.0316	-36.6232	145.918	37.6955	-63.8565	127.787	8.67503	-70.9375	118.372	3.38638	-32.2642	161.47	20.6564	-56.739	143.127	-1.12922	-62.0643	128.818	-6.18021	-30.4435	172.951	8.12773	-42.9378	154.251	-9.40974	-50.7437	139.151	-14.4867	-22.7474	178.661	42.8365	-5.39861	178.553	46.0866	26.0649	154.578	63.865	8.34864	
254	2.11667	112.689	49.7184	15.5811	94.0256	30.43	-8.7997	91.1562	10.4665	-32.7597	110.816	-8.09301	-39.977	121.61	44.1016	-60.438	100.731	22.7837	-63.4695	92.6517	17.2659	-27.7429	136.638	34.7525	-62.4592	114.14	8.62785	-67.9567	109.807	3.12386	-27.3357	149.39	16.818	-55.6957	127.282	-5.29781	-57.7467	117.752	-5.69435	-24.0962	162.856	2.23587	-43.5866	136.291	-11.0109	-45.3715	128.102	-11.5382	-19.0844	175.801	39.1454	-4.54606	174.897	44.0068	21.8208	149.778	63.9204	8.34643	
255	2.125	109.432	55.6315	18.9522	86.8712	36.5713	-7.51248	77.6863	14.8738	-29.1926	95.0684	-8.70693	-39.4688	114.798	47.8624	-55.4523	87.2679	26.6215	-58.74	84.1948	21.0097	-23.1872	126.687	31.3792	-62.5541	102.289	9.52252	-63.7976	97.3641	5.20972	-26.8854	138.948	14.7881	-51.4183	112.45	-7.26233	-50.4831	105.509	-4.16254	-20.7832	150.041	-2.0368	-41.6433	123.848	-14.4442	-40.1906	114.382	-9.96524	-14.3191	168.243	35.6759	-9.2063	173.214	40.125	24.0122	146.726	63.6873	5.50691	
256	2.13333	112.239	60.1854	15.5775	85.3194	45.0924	-2.6434	73.1645	25.1165	-23.422	81.1518	2.94552	-30.8728	109.909	46.6601	-54.8391	80.3172	34.2135	-55.9366	76.224	29.2232	-21.7428	121.991	29.3532	-58.6261	91.3795	12.4896	-58.4949	86.7168	13.3127	-18.3421	123.63	14.2014	-51.8399	101.531	-4.74305	-45.7043	92.9757	0.774519	-14.253	133.612	-4.94188	-40.2525	107.336	-9.81657	-33.3584	101.503	-6.28209	-7.93243	163.635	33.2777	-8.81928	171.518	36.3482	19.574	153.111	60.267	6.34275	
257	2.14167	115.864	68.3108	19.7961	87.3213	56.0046	1.53422	67.1785	39.0256	-16.13	71.5193	12.9392	-26.4034	105.159	52.5741	-53.5028	75.3317	39.3392	-48.1991	73.1487	39.8845	-17.4545	112.056	33.3868	-58.0195	81.4973	22.2603	-54.1747	80.2314	21.6542	-13.5998	115.009	14.5783	-47.82	86.7165	3.19838	-38.943	83.1023	11.0673	-8.3019	121.007	-4.64616	-34.5151	95.6732	-7.03278	-28.6754	92.6964	2.98313	1.61427	158.633	24.3541	-11.107	169.965	27.7558	18.6517	154.198	56.8132	5.37488	
258	2.15	122.406	69.8564	21.128	87.0079	68.9047	1.68799	67.0802	52.3176	-13.5552	63.2761	24.4255	-22.0601	107.207	54.2131	-51.3809	72.4311	50.8923	-44.6427	73.1097	49.8949	-15.3828	107.368	32.0493	-54.5952	72.0966	33.267	-47.5456	76.9617	32.785	-8.73553	104.3	12.6463	-45.1152	75.6293	13.1417	-33.5526	80.6111	21.5303	-0.217736	111.289	-0.238705	-29.0406	82.167	-0.0920404	-20.6352	86.2195	14.1108	5.84697	155.306	20.3319	-9.45796	164.676	17.5805	18.6538	156.759	54.0001	2.35652	
259	2.15833	130.233	72.6087	19.9143	96.8685	75.4526	4.01971	72.405	65.3282	-10.6189	61.4198	41.8046	-16.163	105.17	61.8467	-50.7086	74.7795	65.5755	-41.232	79.87	65.0474	-7.80689	99.9573	36.9515	-54.0137	70.7198	46.5075	-44.7916	74.3992	42.2065	-7.69401	100.529	22.3604	-41.8076	71.7198	23.9309	-32.4749	76.0669	34.103	-0.267597	97.1581	2.75239	-28.8306	73.1275	14.3096	-15.0869	80.354	23.2302	9.86737	147.807	12.8581	-11.2286	159.57	11.1265	21.7391	158.131	50.1072	4.24998	
260	2.16667	139.785	73.3337	21.7343	109.73	84.9236	8.0613	80.3008	81.7714	-8.57956	63.2215	56.6008	-14.4392	107.585	62.5839	-48.9197	80.3017	73.3638	-40.0805	89.7248	73.8326	-5.9719	103.556	43.2237	-49.9663	72.238	56.6178	-43.5495	80.3189	56.018	-4.36302	95.1897	29.2495	-39.8653	68.076	40.0282	-28.6314	77.7595	45.3963	3.68478	88.8064	11.6645	-26.0193	69.2231	25.6204	-13.2698	80.4527	32.3628	13.1058	141.365	10.3245	-5.70716	154.79	8.13256	21.4324	158.632	40.4262	-0.000840884	
261	2.175	150.228	66.9503	22.5973	122.489	88.2547	5.48482	93.4533	87.3905	-9.83853	78.2872	65.3511	-9.652	116.835	65.9356	-46.8296	93.4525	87.2136	-40.4547	99.8082	82.7957	-6.52036	105.237	51.0588	-50.7285	78.5506	66.5635	-40.4517	90.7111	66.2737	-1.1146	93.7774	35.698	-39.444	70.6515	49.6647	-29.3757	82.7623	57.783	4.47015	89.6759	20.1688	-21.0472	68.9957	39.5864	-10.5789	87.3731	45.5406	15.0308	136.255	8.29739	-6.71436	150.243	5.36948	21.6212	160.304	34.6753	3.67359	
262	2.18333	158.962	63.4007	20.1512	139.189	88.4804	7.99367	111.301	95.2526	-9.51837	88.7397	74.3374	-10.1566	124.039	67.911	-47.2542	103.91	88.4691	-39.1497	110.503	89.8385	-6.02998	108.744	51.9559	-48.5127	87.4311	76.8427	-39.3533	96.3625	75.1672	-3.20155	99.1973	39.9145	-37.6058	78.9301	63.467	-28.9416	87.1102	65.7543	4.59685	88.3099	29.6809	-21.2424	74.7814	51.6844	-12.0592	87.524	52.603	14.1422	132.023	5.25937	-1.72473	145.084	-2.2625	22.3329	161.289	26.4492	1.64568	
263	2.19167	166.797	55.5245	19.7642	155.134	77.5894	-1.4696	126.829	78.8898	-21.9343	103.794	65.8669	-19.586	135.233	68.3172	-46.389	120.142	96.2858	-38.756	122.022	99.791	-8.24811	118.604	53.8709	-47.3828	101.226	81.9087	-43.521	104.975	89.1691	-3.19394	106.011	44.788	-39.798	85.7856	68.2893	-32.3158	91.755	74.4186	-0.0599767	93.1314	33.3444	-23.083	83.0576	58.867	-14.5261	94.8979	61.0968	12.0583	134.055	6.22064	-3.09363	143.823	-3.71959	23.6161	164.421	22.752	6.93625	
264	2.2	176.069	49.7657	24.1055	166.461	69.6573	-2.06079	139.517	73.2017	-26.6502	117.039	63.5299	-21.747	145.372	65.2247	-47.0556	136.16	93.3615	-40.5603	133.562	96.4443	-8.98351	127.228	53.7169	-49.8359	113.002	83.842	-45.2618	115.06	90.0166	-4.4394	111.906	42.7728	-41.2663	100.589	73.2863	-37.1949	104.621	77.598	-1.85892	101.744	36.2112	-26.5995	93.1519	63.5507	-21.357	105.918	63.4755	7.90644	132.486	2.96043	-2.03808	141.832	-3.51535	22.3238	166.94	16.5525	7.32939	
265	2.20833	177.404	41.216	20.7331	174.768	61.9869	-6.35213	150.333	67.9604	-30.296	122.327	59.4111	-27.5157	155.412	56.4118	-48.2584	147.318	87.6844	-44.1081	147.749	92.445	-9.97793	137.291	51.896	-53.7139	127.953	80.8369	-48.4532	125.551	87.1656	-10.0482	122.16	42.9465	-44.8918	108.911	72.5501	-40.4809	114.612	79.7026	-11.872	105.177	35.9124	-32.6997	101.852	61.5885	-30.2562	108.64	64.1861	1.85442	133.797	2.99662	-6.58978	141.701	-7.74419	26.4432	170.401	9.9564	7.23073	
266	2.21667	186.206	37.5927	21.7604	182.933	56.9858	-3.06292	161.883	62.3218	-25.8305	131.905	58.5898	-29.8878	167.629	44.4245	-47.1464	162.159	80.8652	-45.5221	160.189	84.4982	-14.6799	148.51	44.1368	-54.5438	142.572	76.2695	-51.6218	143.09	82.7595	-13.4762	135.596	36.6216	-47.6776	121.836	63.4026	-48.1739	126.895	74.719	-15.1979	118.831	29.3879	-32.015	110.142	58.4984	-35.5854	120.545	66.9219	-6.12138	139.385	-2.69534	-3.53063	140.996	-7.64809	24.1195	171.357	4.74505	11.8948	
267	2.225	188.242	33.1104	27.808	189.573	59.0138	0.345687	172.272	71.5089	-23.1442	145.104	66.7385	-27.3248	185.963	35.1881	-46.9319	176.438	65.9817	-50.1356	173.835	69.2201	-13.7916	165.649	31.5112	-55.3168	158.158	62.8906	-55.8794	156.384	67.912	-18.2823	146.637	26.2775	-49.9501	142.436	57.3514	-52.8567	144.123	66.0592	-19.0653	129.281	23.801	-34.6145	124.916	50.3866	-43.4658	130.033	62.4704	-12.7426	144.317	-6.36031	-3.42257	143.593	-11.8572	27.3063	177.617	-1.0317	12.516	
268	2.23333	197.68	30.3755	33.8834	201.066	56.9064	2.37179	187.725	66.8877	-20.626	159.24	62.3357	-35.2943	197.828	23.5785	-45.4703	197.766	55.9709	-46.924	190.031	60.2158	-16.05	179.498	17.5597	-52.5064	179.463	47.9915	-59.383	167.706	56.1186	-19.8237	163.403	15.1212	-49.2	160.17	45.5934	-55.8794	158.813	57.9701	-25.8796	141.103	13.7907	-36.4912	143.43	41.9736	-47.2817	140.49	57.6707	-20.2336	154.571	-10.4569	1.19549	145.899	-11.4758	33.7298	184.997	-5.55173	25.3711	
269	2.24167	200.88	28.9945	35.6635	208.929	49.9082	6.90255	201.906	60.353	-22.0106	178.154	55.3288	-37.8445	218.317	14.1973	-34.2487	211.624	45.7468	-44.2063	200.04	53.5872	-17.175	199.928	5.5433	-43.4101	193.776	37.3896	-57.7518	181.128	49.6435	-21.7836	177.31	3.48019	-42.1686	177.139	31.4644	-57.0916	171.948	51.2722	-30.8238	155.737	3.41389	-36.5837	159.512	28.3917	-49.652	154.465	48.4327	-27.3389	166.33	-16.9739	7.38648	156.942	-15.6329	35.4439	194.147	-8.11537	31.8725	
270	2.25	211.193	33.2785	41.9235	217.238	53.1712	11.8712	211.637	56.503	-16.8545	192.961	48.4697	-36.3775	231.363	10.1172	-26.3503	225.333	40.2951	-39.9508	210.69	51.4459	-15.2253	218.494	0.881181	-36.4206	212.835	28.1798	-54.2978	197.075	47.814	-19.5468	196.257	-1.38901	-38.1012	194	27.7686	-52.4143	183.518	47.0497	-27.1302	173.701	-5.58055	-31.0724	175.309	16.179	-49.8019	172.354	40.1607	-32.1866	178.852	-17.5577	16.7959	168.275	-16.2609	44.7192	201.973	-7.89567	42.0107	
271	2.25833	213.252	39.4199	46.2003	220.503	57.3684	13.0084	219.133	60.3522	-17.7085	203.29	44.5632	-37.6939	246.04	15.4818	-16.0289	239.952	42.1059	-34.3226	216.091	52.2611	-10.247	233.23	2.10859	-27.9723	226.914	26.7305	-49.526	204.75	45.1355	-22.6163	212.786	-3.5481	-29.5064	204.686	21.4112	-49.5566	192.095	43.0845	-28.7567	192.827	-8.93631	-25.0091	192.727	12.4872	-46.9244	184.187	36.5213	-36.1186	196.893	-20.0539	20.4653	174.278	-15.738	47.4604	213.818	-2.45072	48.4267	
272	2.26667	214.512	46.1502	45.4484	218.899	60.196	13.6529	220.391	59.3496	-17.6376	209.385	47.1519	-35.8736	256.986	27.0106	-7.04653	246.248	48.7723	-30.8568	222.505	60.9592	-12.2813	246.354	8.31734	-23.8813	237.377	33.7938	-43.8852	208.235	47.3568	-16.9076	229.746	1.25101	-21.6294	217.834	23.2879	-46.3709	200.336	41.1896	-28.3397	210.634	-8.97834	-23.291	208.375	9.70408	-44.3773	190.993	32.5629	-36.0737	209.028	-13.4129	26.402	190.339	-14.8833	50.6885	218.376	4.46837	51.3522	
273	2.275	209.642	55.5733	48.6516	215.177	66.0918	12.9141	216.873	69.8644	-16.6791	213.953	49.7592	-38.6406	261.697	42.1369	-1.30193	250.477	62.8817	-25.7972	220.443	67.0073	-12.1199	257.033	21.7457	-14.0172	244.06	44.815	-38.8197	213.245	52.5775	-19.723	242.766	10.9704	-19.4193	230.254	27.9037	-40.9066	205.533	44.382	-23.819	225.194	-5.36891	-15.3937	227.861	12.1246	-37.1143	204.835	30.4928	-37.5085	221.046	-5.09433	36.2512	201.707	-6.86331	52.7585	227.486	17.8281	54.082	
274	2.28333	201.098	61.773	49.5815	204.54	74.6179	15.581	213.743	76.2469	-19.9853	214.26	54.1715	-35.2477	260.944	65.4725	0.734041	244.704	76.3556	-23.7499	214.068	78.522	-10.8473	263.545	45.0826	-10.0461	246.241	57.2819	-34.9116	210.873	59.9532	-17.5825	254.3	25.7009	-15.1575	241.939	39.1615	-35.5496	208.198	44.3856	-23.1747	239.147	4.5012	-8.9283	237.048	20.5506	-34.1489	209.552	30.3328	-32.6165	233.363	7.53437	41.0525	208.846	-3.10905	60.574	227.707	31.7415	58.2326	
